<svg xmlns="http://www.w3.org/2000/svg" viewBox="0 0 230 164" width="230" height="164" role="img" aria-label="Rhino logo">
  <path fill="#FFFFFF" fill-rule="evenodd" d="M101.5 6L95 18.5L93 25.5L93 29.5L100 36.5L82.5 45L59.5 61L44 75.5L30.5 94L24.5 92L18 85.5L17 76.5L20.5 72L24.5 74L33.5 72L39 65.5L39.5 55L31.5 58L22.5 64L15 70.5L10 77.5L9 88.5L11 92.5L17.5 99L23.5 102L24 104.5L14 124.5L7 147.5L6 157.5L35.5 158L42 145.5L38 140.5L35 133.5L34 119.5L35 119.5L38 128.5L44.5 135L47.5 136L52 125.5L63.5 110L54 136.5L51 157.5L99.5 158L98 147.5L98 108.5L102 84.5L105.5 72L107 111.5L113 139.5L119.5 158L170.5 158L180.5 140L182.5 158L224 157.5L211 130.5L200 111.5L198.5 111L192.5 117L191 116.5L204 85.5L212 58.5L214 44.5L206 57.5L190.5 78L161.5 58L148 42.5L160 34.5L160 15.5L155.5 7L140.5 34L132.5 27L115.5 31L102 6.5ZM127.5 98L125 104.5L126 111.5L128.5 115L135.5 118L147.5 118L148 116.5L139.5 110L128.5 98Z"></path>
</svg>